<svg width="24" height="25" viewBox="0 0 22 23" fill="none" xmlns="http://www.w3.org/2000/svg">
<path d="M16.5 6.44629H16.51M6 1.94629H16C18.7614 1.94629 21 4.18487 21 6.94629V16.9463C21 19.7077 18.7614 21.9463 16 21.9463H6C3.23858 21.9463 1 19.7077 1 16.9463V6.94629C1 4.18487 3.23858 1.94629 6 1.94629ZM15 11.3163C15.1234 12.1485 14.9813 12.9985 14.5938 13.7453C14.2063 14.4921 13.5931 15.0977 12.8416 15.476C12.0901 15.8542 11.2384 15.9859 10.4078 15.8522C9.57713 15.7186 8.80976 15.3264 8.21484 14.7315C7.61992 14.1365 7.22773 13.3692 7.09407 12.5385C6.9604 11.7078 7.09207 10.8562 7.47033 10.1047C7.84859 9.35314 8.45419 8.74003 9.20098 8.35253C9.94778 7.96503 10.7978 7.82288 11.63 7.94629C12.4789 8.07217 13.2649 8.46775 13.8717 9.0746C14.4785 9.68144 14.8741 10.4674 15 11.3163Z" stroke="#D1D1D1" stroke-width="2" stroke-linecap="round" stroke-linejoin="round"/>
</svg>

