<svg width="24" height="25" viewBox="0 0 24 25" fill="none" xmlns="http://www.w3.org/2000/svg">
<path d="M23 3.94658C22.0424 4.62206 20.9821 5.13869 19.86 5.47658C19.2577 4.78409 18.4573 4.29327 17.567 4.07051C16.6767 3.84774 15.7395 3.90377 14.8821 4.23103C14.0247 4.55829 13.2884 5.14098 12.773 5.9003C12.2575 6.65961 11.9877 7.55892 12 8.47658V9.47658C10.2426 9.52215 8.50127 9.13239 6.93101 8.34203C5.36074 7.55166 4.01032 6.38521 3 4.94658C3 4.94658 -1 13.9466 8 17.9466C5.94053 19.3445 3.48716 20.0455 1 19.9466C10 24.9466 21 19.9466 21 8.44658C20.9991 8.16803 20.9723 7.89017 20.92 7.61658C21.9406 6.61007 22.6608 5.33929 23 3.94658Z" stroke="#D1D1D1" stroke-width="2" stroke-linecap="round" stroke-linejoin="round"/>
</svg>
